<?xml version="1.0" ?><!DOCTYPE svg  PUBLIC '-//W3C//DTD SVG 1.1//EN'  'http://www.w3.org/Graphics/SVG/1.1/DTD/svg11.dtd'><svg enable-background="new 0 0 128 128" height="128px" id="Layer_1" version="1.1" viewBox="0 0 128 128" width="128px" xml:space="preserve" xmlns="http://www.w3.org/2000/svg" xmlns:xlink="http://www.w3.org/1999/xlink"><path d="M77,97v10h-4v3h-0.9h-2.6l-1.1,2.3c-0.7,1.6-2.3,2.6-4.1,2.6s-3.4-1-4.1-2.6l-1.1-2.3h-2.6H55v-3h-3.7H51V97  H77 M78.7,93H49.9c-1.7,1-2.9,1.7-2.9,3.5v10.8c0,1.9,1.3,3.7,3.1,3.7h1.1c0,2,1.1,3,2.5,3h2.7c1.3,3,4.3,5.1,7.8,5.1  c3.5,0,6.4-2.1,7.8-5.1h2.8c1.4,0,2.5-1,2.5-3h1.1c1.9,0,2.5-1.8,2.5-3.7V96.5C81,94.7,80.3,93,78.7,93L78.7,93z" fill="#2C3E50"/><path d="M64.3,16c8.3,0,16.4,3.6,22.2,9.7C99.1,38.9,99.1,57.4,86.5,70c-6,6-9.2,12-10.8,17H52.9  c-1.6-4-4.7-10.7-10.9-17C29.4,57.5,29.4,38.9,42,25.7C48,19.4,55.9,16,64.3,16 M64.3,12c-9.5,0-18.5,3.9-25.2,11  C25,37.8,25,58.7,39.2,72.9C45.6,79.3,48.7,86,49.9,91h28.7c0,0,0,0.2,0,0.2c1.3-5,4.3-11.8,10.7-18.2c14.2-14.2,14.3-35.2,0.1-50  C82.8,16,73.7,12,64.3,12L64.3,12z" fill="#3B97D3"/><path d="M75.8,55.8c-0.4-0.4-1-0.4-1.4,0L64.1,66L53.7,55.6c-0.4-0.4-1-0.4-1.4,0s-0.4,1-0.1,1.4L63,67.8v14.1  c0,0.6,0.4,1,1,1s1-0.4,1-1V67.8l10.7-10.7C76.1,56.8,76.2,56.1,75.8,55.8z" fill="#2C3E50"/></svg>