<?xml version="1.0" ?><!DOCTYPE svg  PUBLIC '-//W3C//DTD SVG 1.1//EN'  'http://www.w3.org/Graphics/SVG/1.1/DTD/svg11.dtd'><svg enable-background="new 0 0 128 128" height="128px" id="Слой_1" version="1.1" viewBox="0 0 128 128" width="128px" xml:space="preserve" xmlns="http://www.w3.org/2000/svg" xmlns:xlink="http://www.w3.org/1999/xlink"><g><path d="M120.9990234,32.2426758C118.5927734,27.296875,113.7773438,23.25,110.2978516,23.25    s-3.9609375,3.8276367-1.0683594,8.5058594c0,0,8.2705078,13.378418,8.2705078,26.9941406c0,29.5-24,53.5-53.5,53.5    s-53.5-24-53.5-53.5c0-13.6157227,8.2705078-26.9941406,8.2705078-26.9941406    C21.6625977,27.0776367,21.1816406,23.25,17.7016602,23.25S9.40625,27.296875,7.0009766,32.2426758    c0,0-6.5009766,13.3676758-6.5009766,26.5073242c0,35.0136719,28.4858398,63.5,63.5,63.5c35.0136719,0,63.5-28.4863281,63.5-63.5    C127.5,45.6103516,120.9990234,32.2426758,120.9990234,32.2426758z M64,68.75c2.75,0,5-2.25,5-5v-53c0-2.75-2.25-5-5-5    s-5,2.25-5,5v53C59,66.5,61.25,68.75,64,68.75z" fill="#373737"/></g></svg>