<?xml version="1.0" encoding="utf-8"?>
<!-- Generator: Adobe Illustrator 15.1.0, SVG Export Plug-In . SVG Version: 6.00 Build 0)  -->
<!DOCTYPE svg PUBLIC "-//W3C//DTD SVG 1.1//EN" "http://www.w3.org/Graphics/SVG/1.1/DTD/svg11.dtd">
<svg version="1.1" id="Layer_1" xmlns="http://www.w3.org/2000/svg" xmlns:xlink="http://www.w3.org/1999/xlink" x="0px" y="0px"
	 width="40px" height="40px" viewBox="0 0 40 40" enable-background="new 0 0 40 40" xml:space="preserve">
<g>
	<g>
		<g>
			<path fill="#010101" d="M20.5,35.5c-8.822,0-16-7.178-16-16s7.178-16,16-16s16,7.178,16,16S29.322,35.5,20.5,35.5z M20.5,4.047
				c-8.521,0-15.453,6.933-15.453,15.453c0,8.521,6.933,15.453,15.453,15.453c8.521,0,15.453-6.932,15.453-15.453
				C35.953,10.979,29.021,4.047,20.5,4.047z"/>
		</g>
		<g>
			<rect x="20.222" y="4.815" fill="#010101" width="0.556" height="3.037"/>
			<rect x="32.111" y="19.222" fill="#010101" width="3.037" height="0.556"/>
			<rect x="20.185" y="31.111" fill="#010101" width="0.556" height="3.037"/>
			<rect x="5.814" y="19.186" fill="#010101" width="3.037" height="0.556"/>
		</g>
		<path fill="#010101" d="M21.203,19.5c0-0.033-0.003-0.066-0.008-0.099l8.747-4.994l-0.275-0.482l-8.76,5.001
			c-0.115-0.082-0.255-0.13-0.407-0.13c-0.167,0-0.319,0.058-0.439,0.154l-6.367-3.635l-0.276,0.482l6.382,3.644
			c-0.001,0.019-0.003,0.039-0.003,0.059c0,0.02,0.001,0.04,0.003,0.059l-0.882,0.503l0.276,0.482l0.868-0.496
			c0.12,0.097,0.273,0.154,0.439,0.154c0.151,0,0.292-0.049,0.407-0.13l0.826,0.472l0.275-0.482l-0.812-0.464
			C21.2,19.566,21.203,19.533,21.203,19.5L21.203,19.5z"/>
	</g>
</g>
</svg>
