<?xml version="1.0" encoding="utf-8"?>
<!-- Generator: Adobe Illustrator 15.1.0, SVG Export Plug-In . SVG Version: 6.00 Build 0)  -->
<!DOCTYPE svg PUBLIC "-//W3C//DTD SVG 1.1//EN" "http://www.w3.org/Graphics/SVG/1.1/DTD/svg11.dtd">
<svg version="1.1" id="Layer_1" xmlns="http://www.w3.org/2000/svg" xmlns:xlink="http://www.w3.org/1999/xlink" x="0px" y="0px"
	 width="40px" height="40px" viewBox="0 0 40 40" enable-background="new 0 0 40 40" xml:space="preserve">
<path fill="#010101" d="M17.024,3.814c-0.885,0-1.61-0.724-1.61-1.61c0-0.885,0.725-1.609,1.61-1.609
	c0.885,0,1.609,0.724,1.609,1.609C18.633,3.09,17.909,3.814,17.024,3.814z M25.071,3.814c-0.885,0-1.608-0.724-1.608-1.61
	c0-0.885,0.724-1.609,1.608-1.609s1.609,0.724,1.609,1.609C26.681,3.09,25.956,3.814,25.071,3.814z M15.414,9.447h11.267V7.838
	H15.414V9.447z M15.414,7.033h11.267c0.442,0,0.806,0.363,0.806,0.805v1.609c0,0.443-0.363,0.805-0.806,0.805H15.414
	c-0.442,0-0.805-0.362-0.805-0.805V7.838C14.609,7.396,14.972,7.033,15.414,7.033z M11.39,27.958c-0.885,0-1.61,0.724-1.61,1.608
	s0.725,1.61,1.61,1.61c0.885,0,1.609-0.726,1.609-1.61S12.275,27.958,11.39,27.958z M11.39,31.981c-1.336,0-2.414-1.078-2.414-2.415
	c0-1.336,1.078-2.414,2.414-2.414s2.415,1.078,2.415,2.414C13.805,30.903,12.726,31.981,11.39,31.981z M30.705,27.958
	c-0.885,0-1.61,0.724-1.61,1.608s0.726,1.61,1.61,1.61s1.609-0.726,1.609-1.61S31.59,27.958,30.705,27.958z M30.705,31.981
	c-1.336,0-2.414-1.078-2.414-2.415c0-1.336,1.078-2.414,2.414-2.414c1.335,0,2.414,1.078,2.414,2.414
	C33.119,30.903,32.04,31.981,30.705,31.981z M34.729,23.933H7.366v6.438c0,1.779,1.44,3.219,3.219,3.219H31.51
	c1.778,0,3.219-1.439,3.219-3.219V23.933z M34.729,11.862H7.366v11.267h27.362V11.862z M34.729,9.447
	c0-1.778-1.44-3.219-3.219-3.219H10.585c-1.779,0-3.219,1.44-3.219,3.219v1.61h27.362V9.447z M31.51,35.2h-2.415l1.61,4.023h-1.61
	L27.486,35.2H14.609L13,39.224H11.39L13,35.2h-2.414c-2.664,0-4.829-2.164-4.829-4.829V9.447c0-2.664,2.165-4.829,4.829-4.829H31.51
	c2.663,0,4.828,2.165,4.828,4.829v20.924C36.338,33.036,34.173,35.2,31.51,35.2z"/>
</svg>
